<?xml version="1.0" encoding="UTF-8"?> <svg xmlns="http://www.w3.org/2000/svg" xmlns:xlink="http://www.w3.org/1999/xlink" width="170.128" height="12" viewBox="0 0 170.128 12"><defs><clipPath id="a"><rect width="170.128" height="12"></rect></clipPath></defs><g transform="translate(0 0)"><g transform="translate(0 0)" clip-path="url(#a)"><path d="M6.349,11.756,10.186,1.674h.07V11.756h1.6V.209H9.279L6,9.14H5.93L2.547.209H0V11.756H1.5V1.674h.07L5.512,11.756Zm13.221,0h1.6V.209h-1.6ZM37.779,7.709a3.42,3.42,0,0,1-3.7,2.9C31.744,10.6,30,8.826,30,6c0-2.86,1.709-4.64,4.116-4.64A3.412,3.412,0,0,1,37.64,3.907l1.326-.872A4.892,4.892,0,0,0,34.081,0a5.7,5.7,0,0,0-5.791,6,5.714,5.714,0,0,0,5.756,6,4.93,4.93,0,0,0,5.128-3.488Zm10.012,4.047V6.488h7.081v5.3h1.6V.209h-1.6V5.093H47.791V.209h-1.6V11.756ZM68.581,1.919h.07l2.023,5.2H66.558Zm3.942,9.837h1.709L69.558.209H67.744l-4.57,11.547h1.6L66.07,8.372h5.093Zm17.3-1.326H82.57V6.488h5.407V5.128H82.57V1.57h7.081V.209H80.965V11.756h8.826V10.43ZM97.047.209V11.756H105.8v-1.4H98.686V.209Zm21.977,1.36h3.384c1.953,0,2.756.663,2.756,1.919,0,1.326-.907,1.953-2.86,1.953h-3.279ZM127.5,11.756v-.14c-.593-.384-.977-1.012-1.291-2.93a2.839,2.839,0,0,0-2.233-2.651A2.831,2.831,0,0,0,126.8,3.384c0-1.953-1.326-3.209-4.256-3.209h-5.128V11.721h1.6V6.7h3.453c1.64,0,2.2.942,2.337,2.721.1,1.151.349,2.128.767,2.337Zm15.558-1.326H135.8V6.488h5.407V5.128H135.8V1.57h7.081V.209H134.2V11.756h8.826V10.43Zm7.256,1.326h1.6V.209h-1.6Zm9.314,0h4.291c3.767,0,6.209-2.163,6.209-5.791S167.721.174,163.919.174h-4.291Zm1.6-1.291V1.535h2.477c3.07,0,4.709,1.64,4.709,4.465,0,2.791-1.64,4.465-4.709,4.465Z" transform="translate(0 0)"></path></g></g></svg> 